<svg id="Capa_1" data-name="Capa 1" xmlns="http://www.w3.org/2000/svg" viewBox="0 0 130 130"><defs><style>.cls-1{fill:#231f20;}</style></defs><title>mo</title><path class="cls-1" d="M114.27,87.07l-.74-1.25L110,88l.1.17Z"/><path class="cls-1" d="M48,103H43.39c1.29-.34,1.12-1.41,1.12-2.32,0-3,0-5.94,0-8.91,0-1.78,0-1.78-1.47-2.34,0-.05.05-.13.08-.13,2.2,0,4.43-.09,6.61.15,3.09.33,4.21,3.19,2.35,5.69-.41.56-.91,1-1.52,1.74,1.6,1.7,3.17,3.49,4.88,5.14a7.16,7.16,0,0,0,2.19.93c-2,.13-3.69.3-5-1.3-.91-1.13-1.9-2.21-2.75-3.38a2,2,0,0,0-2-1,14.66,14.66,0,0,1-1.65,0c.08,1.62.06,3.19.28,4.73C46.54,102.35,47.4,102.62,48,103Zm-1.7-9.79h0v.91c0,2.53,0,2.58,2.63,2.47a2.15,2.15,0,0,0,2.05-1.51c1.18-3-.85-5.57-4-5.07a1,1,0,0,0-.61.66C46.21,91.48,46.25,92.33,46.25,93.18Z"/><path class="cls-1" d="M102.1,89.73h4c-1.39.34-1.16,1.43-1.17,2.39,0,3.27-.07,6.55-.11,9.82a3.25,3.25,0,0,1-.15,1.15A147.91,147.91,0,0,1,94,92.29v1.27q.06,3.41.13,6.82c0,1.78,0,1.78,1.77,2.47H91.49c1.36-.63,1.4-.63,1.43-2.14.06-3.36.08-6.73.13-10.09,0-.41.06-.81.1-1.22l.28-.13,10.45,11.1c0-.4.06-.62.06-.85,0-2.36-.07-4.73-.1-7.09C103.82,90.52,103.82,90.52,102.1,89.73Z"/><path class="cls-1" d="M5.89,94.69c0,2.15,0,4.23,0,6.31a1.19,1.19,0,0,0,1.22,1.14,23.36,23.36,0,0,0,2.9,0c1.13-.08,1.56-.88,1.68-2l.33.12c-.15.85-.25,1.7-.48,2.53-.05.16-.58.28-.88.27-1.79,0-3.57-.08-5.36-.11-1,0-1.9,0-2.92-.09,1.66-.22,1.48-1.45,1.47-2.53,0-3.64-.12-7.28-.19-10.91,0-2.15-.05-2.15-2.19-2.91H11.1l-.2,2.57c-.43-1.91-1.94-1.63-3.26-1.7-.65,0-1.31,0-1.95,0,0,2,0,4,0,5.93,0,.17.27.47.41.46,1.58,0,3.2.34,4.8-.46l-.23,2.93-.23.21c0-1.88-1.26-1.71-2.38-1.75C7.33,94.67,6.58,94.69,5.89,94.69Z"/><path class="cls-1" d="M72.77,95.18a15.46,15.46,0,0,1,1.77,1.16,3.58,3.58,0,0,1-.68,5.94,10.13,10.13,0,0,1-2,.62,2.88,2.88,0,0,1-.72,0c-1.63,0-3.26,0-5-.09,1.36-.39,1.15-1.5,1.17-2.42.06-3,.08-6,.08-9.08,0-1.46-.06-1.5-1.57-1.85a2.45,2.45,0,0,1,.59-.13c1.48,0,3,0,4.44,0a5.38,5.38,0,0,1,1.26.17c2.37.62,3,2.83,1.46,4.69C73.35,94.59,73.05,94.88,72.77,95.18Zm-3.64.74c0,1.8,0,3.6,0,5.41a.8.8,0,0,0,.28.54c1.27,1.13,4.1.26,4.53-1.38C74.52,98.33,73.17,95.25,69.13,95.92Zm0-.65A10.48,10.48,0,0,0,72,94.85c1-.45,1.21-2.31.63-3.46a2.69,2.69,0,0,0-3.09-1.32c-.16.06-.38.27-.38.42C69.11,92,69.12,93.5,69.12,95.27Z"/><path class="cls-1" d="M40,99.91c-.18.84-.33,1.7-.58,2.52a1,1,0,0,1-.68.52c-3.13.55-6.24.66-9-1.18a6.65,6.65,0,0,1-3-7.11,6.34,6.34,0,0,1,5.14-5.48c2.54-.61,5.06-.16,7.57.26.14,0,.34.22.34.34,0,1,0,2,0,3.18-.31-.19-.39-.21-.39-.24-.15-1.76-1.28-2.49-2.85-2.82a9.88,9.88,0,0,0-4.68.12,4.33,4.33,0,0,0-2.91,2.66,7,7,0,0,0,6,9.66,12.15,12.15,0,0,0,2,0,2.62,2.62,0,0,0,2.52-2,3,3,0,0,1,.21-.45Z"/><path class="cls-1" d="M83.71,89c.33.73.57,1.24.78,1.76,1.29,3.23,2.56,6.47,3.87,9.69.44,1.11.9,2.25,2.37,2.42H87.36c-.25-.78-.44-1.48-.69-2.16-1-2.71-1-2.7-3.9-2.69-1.66,0-1.67,0-2.27,1.56-.21.54-.42,1.08-.61,1.62-.24.7-.47,1.4.63,1.66H76.65a.88.88,0,0,0,0-.14c1.39-.1,1.87-1.09,2.31-2.21,1.35-3.47,2.76-6.92,4.15-10.37C83.25,89.77,83.44,89.48,83.71,89Zm-.25,3.24-.25,0-1.81,5h3.89Z"/><path class="cls-1" d="M118.39,103.11h-4c.24-.18.32-.28.4-.29,1,0,1.48-.66,1.82-1.51q2.13-5.31,4.27-10.61c.16-.39.34-.76.61-1.36.29.55.5.89.65,1.26l4,10c.48,1.19,1,2.39,2.49,2.6h-3.5c-.12-.55-.18-1-.32-1.43s-.37-1-.57-1.44c-.84-2-.84-2-3.07-2s-2.21,0-3,2.06c-.17.45-.32.91-.48,1.37C117.51,102.37,117.54,102.89,118.39,103.11Zm2.93-10.57-.21,0L119.3,97.5h3.87C122.53,95.77,121.93,94.15,121.32,92.54Z"/><path class="cls-1" d="M22.66,91.42c-1.1-1.64-2.3-2.21-4.1-1.82a1.92,1.92,0,0,0-1.2,3.25,22.78,22.78,0,0,0,2.73,2.22,21.08,21.08,0,0,1,2.26,2,3.51,3.51,0,0,1,.71,3.81,3.34,3.34,0,0,1-3,2.26,31.38,31.38,0,0,1-3.87-.15c-.66,0-.91-.47-.87-1.13s0-1.23,0-1.85h.27a2,2,0,0,0,.18.52A4.89,4.89,0,0,0,16.89,102a3.74,3.74,0,0,0,3.5.22,2.28,2.28,0,0,0,.81-3.7,27.81,27.81,0,0,0-2.59-2.12,19.57,19.57,0,0,1-2.3-2.05A3.22,3.22,0,0,1,17.92,89a8.75,8.75,0,0,1,4.4.09.61.61,0,0,1,.33.43C22.68,90.16,22.66,90.79,22.66,91.42Z"/><path class="cls-1" d="M58.22,89.39h4.15c-1.15.27-1.18,1.1-1.18,2,0,3,0,6,0,9.08,0,1.78,0,1.78,1.58,2.36H58.23c1.12-.27,1.1-1.18,1.11-2,0-3.21,0-6.42.08-9.62C59.43,90.31,59.26,89.61,58.22,89.39Z"/><path class="cls-1" d="M113.34,103H109c1.12-.21,1.08-1,1.09-1.84,0-3.21.08-6.42.12-9.63,0-.84-.13-1.53-1.16-1.7h4c-.41.31-.86.49-1,.82a2.79,2.79,0,0,0-.15,1.24c0,2.88,0,5.75,0,8.63C111.83,101.64,111.64,102.91,113.34,103Z"/><path class="cls-1" d="M114.27,87.07l-4.16,1.05L110,88l3.52-2.13Z"/><path class="cls-1" d="M110,27.8c-1.47-1.26-3.14-3.35-3.72-3.08-3.57,1.66-6.89,3.85-10.3,5.86l.27.49Z"/><path class="cls-1" d="M39.43,69l20-41.21.77,0a22.39,22.39,0,0,1,.62,2.76Q62.6,49.3,64.35,68c.09.94.23,1.87.37,2.8.65,4.1,1.61,5,5.71,5.72a2.19,2.19,0,0,1,1.39.76H59.58c-.92-12.21-1.81-24-2.71-35.79l-.75-.25Q47.35,59.15,38.56,77l-1.06.12-17-35.63-.48.09c-.7,6.72-1.41,13.44-2.08,20.16q-.45,4.35-.75,8.72c-.32,4.61-.3,4.61,3.84,6.23H8.15c.49-.41.71-.76.94-.76,2.65,0,3.59-1.63,3.87-4,.86-7.11,1.75-14.21,2.62-21.31s1.71-14,2.59-21a18.43,18.43,0,0,1,.58-2.27l.83-.12C26.09,41,32.6,54.65,39.43,69Z"/><path class="cls-1" d="M99.5,35.53c13.65.17,22.52,8.59,22.34,21.23S111.43,78.81,98.23,78.6c-13-.2-21.8-9.13-21.66-22.07C76.7,44.48,86.64,35.37,99.5,35.53ZM114.69,65a26.66,26.66,0,0,0,.19-14.18,21.8,21.8,0,0,0-1.06-3.26c-2.47-5.94-7.14-9.29-13.68-9.79-6.27-.48-11.6,1.3-15.09,6.82-4.91,7.76-3.15,20.86,3.51,27.21,7.36,7,20.32,5.5,24.77-3.24A20.61,20.61,0,0,0,114.69,65Z"/><path class="cls-1" d="M110,27.8,96.23,31.07,96,30.58c3.41-2,6.73-4.2,10.3-5.86C106.84,24.45,108.51,26.54,110,27.8Z"/></svg>