<svg id="Capa_1" data-name="Capa 1" xmlns="http://www.w3.org/2000/svg" viewBox="0 0 198.75 41.54"><defs><style>.cls-1{fill:#f4ca6b;}</style></defs><title>mo_logo_oro_ok</title><path class="cls-1" d="M169.75,35l-.05-.28c-46.77-1.14-93.55-.88-140.34-.21a2.06,2.06,0,0,0,1.06.28c10.34,0,20.69,0,31-.12,27.08-.33,54.15-.36,81.23.13,8.68.16,17.36.22,26,.31A7.34,7.34,0,0,0,169.75,35ZM125.5,9.64l-.72-1.23-3.45,2.08.1.17Zm53.4.54c-.47-.4-1-1.06-1.17-1a36.32,36.32,0,0,0-3.26,1.85l.09.15Z"/><path class="cls-1" d="M156.64,23.19c2.17-4.49,4.23-8.75,6.3-13l.24,0a8.23,8.23,0,0,1,.19.86q.57,5.91,1.13,11.81c0,.29.07.59.12.88.2,1.29.5,1.59,1.8,1.81a.68.68,0,0,1,.44.24H163l-.85-11.3-.24-.08-5.54,11.3-.33,0q-2.68-5.61-5.36-11.24l-.15,0c-.22,2.12-.45,4.24-.66,6.36-.09.92-.17,1.84-.23,2.75-.11,1.46-.1,1.46,1.21,2h-4.07c.15-.13.22-.24.29-.24.84,0,1.14-.52,1.22-1.25q.42-3.36.83-6.72c.27-2.21.54-4.43.82-6.64a6.15,6.15,0,0,1,.18-.71l.26,0Z"/><path class="cls-1" d="M169.75,35a7.34,7.34,0,0,1-1,.11c-8.67-.09-17.35-.15-26-.31-27.08-.49-54.15-.46-81.23-.13-10.34.13-20.69.09-31,.12a2.06,2.06,0,0,1-1.06-.28c46.79-.67,93.57-.93,140.34.21Z"/><path class="cls-1" d="M60.51,25.22H56c1.27-.34,1.1-1.38,1.1-2.28,0-2.91,0-5.82,0-8.73,0-1.75,0-1.75-1.44-2.29,0-.05,0-.13.07-.13,2.17,0,4.35-.09,6.49.15,3,.32,4.12,3.13,2.3,5.58-.41.54-.89,1-1.49,1.7,1.56,1.67,3.11,3.41,4.78,5a7,7,0,0,0,2.15.9c-1.91.14-3.62.3-4.9-1.27-.9-1.1-1.86-2.16-2.7-3.31a2,2,0,0,0-2-1,14,14,0,0,1-1.61,0,46.28,46.28,0,0,0,.27,4.63C59.13,24.61,60,24.87,60.51,25.22Zm-1.66-9.6h0c0,.3,0,.59,0,.89,0,2.48.06,2.53,2.58,2.43a2.11,2.11,0,0,0,2-1.49c1.16-2.94-.83-5.45-4-5a.92.92,0,0,0-.59.65C58.8,14,58.85,14.79,58.85,15.62Z"/><path class="cls-1" d="M113.58,12.24h4c-1.35.34-1.13,1.4-1.14,2.34,0,3.21-.07,6.42-.11,9.63a3.1,3.1,0,0,1-.15,1.12,145.88,145.88,0,0,1-10.51-10.58V16l.12,6.68c0,1.76.05,1.76,1.74,2.43h-4.3c1.33-.62,1.37-.62,1.4-2.1.06-3.29.08-6.59.13-9.89,0-.4.06-.79.09-1.19l.28-.13,10.24,10.88c0-.39.06-.61.06-.83l-.09-6.95C115.26,13,115.26,13,113.58,12.24Z"/><path class="cls-1" d="M175.59,12.62c4.31.05,7.11,2.71,7,6.7a7,7,0,0,1-7.45,6.89,6.57,6.57,0,0,1-6.83-7C168.4,15.44,171.53,12.57,175.59,12.62Zm4.79,9.3a8.48,8.48,0,0,0,.07-4.47,8.28,8.28,0,0,0-.34-1,5.28,5.28,0,0,0-9.08-.94,7.49,7.49,0,0,0,1.11,8.59c2.32,2.22,6.41,1.73,7.81-1A5.41,5.41,0,0,0,180.38,21.92Z"/><path class="cls-1" d="M19.29,17.1c0,2.11,0,4.15,0,6.19a1.17,1.17,0,0,0,1.2,1.11,20.69,20.69,0,0,0,2.84,0c1.11-.07,1.53-.86,1.64-1.91l.33.11c-.15.83-.25,1.67-.48,2.48,0,.16-.56.27-.85.27-1.76,0-3.51-.08-5.26-.12-.93,0-1.86,0-2.86-.08,1.63-.22,1.46-1.42,1.44-2.48,0-3.57-.11-7.13-.18-10.69,0-2.11-.05-2.11-2.15-2.85H24.4l-.19,2.52C23.78,9.74,22.3,10,21,9.94c-.64,0-1.29,0-1.92,0,0,2,0,3.9,0,5.81,0,.16.26.46.4.45,1.55,0,3.14.34,4.7-.45L24,18.61l-.23.21c0-1.84-1.23-1.68-2.33-1.71C20.7,17.08,20,17.1,19.29,17.1Z"/><path class="cls-1" d="M84.83,17.58a16.35,16.35,0,0,1,1.74,1.14,3.51,3.51,0,0,1-.67,5.82,9.53,9.53,0,0,1-1.94.61,2.77,2.77,0,0,1-.71,0c-1.59,0-3.19,0-4.86-.08,1.33-.38,1.12-1.47,1.14-2.37.06-3,.08-5.94.08-8.9,0-1.44-.06-1.47-1.54-1.82a4.07,4.07,0,0,1,.58-.13c1.45,0,2.9,0,4.35,0a5.53,5.53,0,0,1,1.23.17,2.66,2.66,0,0,1,1.44,4.6C85.4,17,85.11,17.29,84.83,17.58Zm-3.56.73c0,1.76,0,3.53,0,5.3a.84.84,0,0,0,.28.53c1.25,1.11,4,.26,4.44-1.36C86.54,20.67,85.23,17.65,81.27,18.31Zm0-.64a10.43,10.43,0,0,0,2.8-.41c1-.44,1.19-2.27.62-3.39a2.64,2.64,0,0,0-3-1.29.62.62,0,0,0-.38.4C81.25,14.46,81.26,15.94,81.26,17.67Z"/><path class="cls-1" d="M52.69,22.22c-.18.82-.33,1.66-.57,2.47a1,1,0,0,1-.66.5c-3.07.55-6.12.65-8.87-1.15a6.52,6.52,0,0,1-2.93-7,6.23,6.23,0,0,1,5-5.37c2.49-.61,5-.16,7.43.25.13,0,.33.21.33.33,0,1,0,2,0,3.12-.31-.19-.39-.21-.39-.24-.14-1.72-1.25-2.44-2.79-2.76a9.46,9.46,0,0,0-4.58.12,4.23,4.23,0,0,0-2.86,2.6,6.88,6.88,0,0,0,5.9,9.47,11.67,11.67,0,0,0,2,0,2.57,2.57,0,0,0,2.47-2,2.93,2.93,0,0,1,.21-.44Z"/><path class="cls-1" d="M95.56,11.48c.32.71.56,1.21.76,1.72,1.27,3.17,2.51,6.34,3.79,9.5.44,1.08.88,2.2,2.33,2.36H99.13c-.24-.76-.43-1.45-.68-2.11-1-2.65-1-2.65-3.81-2.63-1.64,0-1.64,0-2.23,1.53-.21.52-.41,1-.6,1.58-.24.69-.46,1.38.62,1.63H88.64a.49.49,0,0,1,0-.14c1.36-.1,1.83-1.06,2.26-2.17C92.24,19.36,93.62,16,95,12.6,95.11,12.28,95.29,12,95.56,11.48Zm-.25,3.17-.24,0-1.78,4.85H97.1Z"/><path class="cls-1" d="M129.54,25.35h-3.89c.24-.17.31-.27.39-.28a1.92,1.92,0,0,0,1.79-1.48q2.08-5.2,4.18-10.4c.16-.38.33-.74.6-1.33.28.54.49.87.63,1.23q2,4.92,3.95,9.83c.47,1.16.93,2.35,2.43,2.55h-3.43a12.38,12.38,0,0,0-.31-1.4c-.15-.48-.36-.94-.56-1.41-.82-2-.82-2-3-2s-2.17,0-2.95,2c-.17.45-.32.9-.47,1.35C128.68,24.63,128.71,25.14,129.54,25.35ZM132.42,15l-.22,0-1.77,4.83h3.8Z"/><path class="cls-1" d="M35.73,13.9c-1.08-1.61-2.26-2.17-4-1.78a1.88,1.88,0,0,0-1.18,3.18,22.75,22.75,0,0,0,2.68,2.18,19.17,19.17,0,0,1,2.21,1.91,3.43,3.43,0,0,1,.7,3.73,3.29,3.29,0,0,1-3,2.22,30,30,0,0,1-3.79-.15c-.65,0-.9-.46-.86-1.11s0-1.21,0-1.81h.27a2.54,2.54,0,0,0,.17.51,5.14,5.14,0,0,0,1.13,1.5,3.66,3.66,0,0,0,3.43.21,2.23,2.23,0,0,0,.79-3.62,27,27,0,0,0-2.53-2.09,18.68,18.68,0,0,1-2.25-2,3.14,3.14,0,0,1,1.57-5.23,8.51,8.51,0,0,1,4.31.08.58.58,0,0,1,.32.43C35.75,12.66,35.73,13.28,35.73,13.9Z"/><path class="cls-1" d="M70.57,11.91h4.08c-1.13.26-1.17,1.08-1.16,2,0,3,0,5.93,0,8.9,0,1.74,0,1.74,1.55,2.31H70.58c1.1-.26,1.08-1.16,1.09-2,0-3.14,0-6.29.08-9.43C71.76,12.81,71.59,12.12,70.57,11.91Z"/><path class="cls-1" d="M124.59,25.26h-4.28c1.1-.2,1.06-1,1.07-1.8.05-3.14.07-6.29.12-9.43,0-.82-.13-1.5-1.14-1.67h4c-.4.3-.85.48-1,.8a2.71,2.71,0,0,0-.14,1.22c0,2.82-.06,5.64-.06,8.46C123.11,23.91,122.92,25.15,124.59,25.26Z"/><path class="cls-1" d="M125.5,9.64l-4.07,1-.1-.17,3.45-2.08Z"/><path class="cls-1" d="M178.9,10.18l-4.34,1-.09-.15a36.32,36.32,0,0,1,3.26-1.85C177.91,9.12,178.43,9.78,178.9,10.18Z"/></svg>