<svg id="Capa_1" data-name="Capa 1" xmlns="http://www.w3.org/2000/svg" viewBox="0 0 198.75 150"><defs><style>.cls-1{fill:#efcb79;}</style></defs><title>mo_oro_pie</title><path class="cls-1" d="M182.26,38.7l0-.32c-55-1.35-110-1-165.1-.25a2.44,2.44,0,0,0,1.24.32c12.17,0,24.34,0,36.51-.13,31.85-.39,63.71-.43,95.56.15,10.21.19,20.42.25,30.63.36A8.29,8.29,0,0,0,182.26,38.7Zm-52-29.84-.85-1.45L125.3,9.86l.12.2ZM193,9.49c-.55-.47-1.17-1.24-1.38-1.14a41.29,41.29,0,0,0-3.82,2.18l.1.17Z"/><path class="cls-1" d="M166.84,24.79,174.25,9.5h.29c.07.34.19.68.23,1l1.32,13.89c0,.35.08.69.14,1,.24,1.52.59,1.87,2.12,2.12a.8.8,0,0,1,.51.28h-4.54c-.34-4.53-.67-8.91-1-13.28l-.28-.1-6.52,13.29-.4,0-6.3-13.22-.18,0q-.39,3.75-.77,7.48c-.11,1.08-.2,2.16-.28,3.24-.12,1.71-.11,1.71,1.43,2.31h-4.79c.18-.15.26-.28.35-.28,1,0,1.33-.6,1.43-1.46.33-2.64.65-5.28,1-7.91s.63-5.21,1-7.81a6.45,6.45,0,0,1,.21-.84l.31,0Z"/><path class="cls-1" d="M182.26,38.7a8.29,8.29,0,0,1-1.21.13c-10.21-.11-20.42-.17-30.63-.36-31.85-.58-63.71-.54-95.56-.15-12.17.15-24.34.1-36.51.13a2.44,2.44,0,0,1-1.24-.32c55.05-.79,110.08-1.1,165.1.25Z"/><path class="cls-1" d="M53.75,27.19H48.49c1.5-.4,1.29-1.63,1.3-2.69,0-3.42,0-6.85,0-10.27,0-2.05,0-2.05-1.7-2.69,0-.06.06-.16.09-.16,2.55,0,5.11-.09,7.63.18,3.56.38,4.85,3.68,2.71,6.56-.48.64-1.06,1.21-1.76,2,1.84,2,3.66,4,5.63,5.93a8.25,8.25,0,0,0,2.53,1.06c-2.25.16-4.27.35-5.77-1.5C58.09,24.32,57,23.08,56,21.73a2.33,2.33,0,0,0-2.34-1.17,16.75,16.75,0,0,1-1.9,0A53.6,53.6,0,0,0,52.06,26C52.13,26.47,53.12,26.77,53.75,27.19Zm-2-11.3h0v1.05c0,2.92.06,3,3,2.85a2.45,2.45,0,0,0,2.35-1.74c1.37-3.47-1-6.42-4.64-5.84a1.09,1.09,0,0,0-.7.76C51.74,13.94,51.8,14.92,51.8,15.89Z"/><path class="cls-1" d="M116.19,11.92h4.65c-1.6.39-1.34,1.65-1.35,2.75,0,3.78-.08,7.55-.12,11.33a3.86,3.86,0,0,1-.18,1.32c-4.42-3.77-8.21-8.09-12.37-12.45v1.46c.05,2.62.09,5.24.15,7.86,0,2.06,0,2.06,2,2.86H104c1.57-.73,1.61-.73,1.65-2.47.07-3.88.09-7.76.15-11.64,0-.47.07-.93.11-1.4l.32-.16,12.06,12.81c0-.47.06-.72.06-1,0-2.73-.07-5.45-.11-8.18C118.16,12.83,118.16,12.83,116.19,11.92Z"/><path class="cls-1" d="M189.14,12.36c5.07.06,8.36,3.19,8.29,7.88a8.28,8.28,0,0,1-8.76,8.11c-4.84-.08-8.09-3.39-8-8.19C180.67,15.68,184.36,12.3,189.14,12.36Zm5.64,11a9.92,9.92,0,0,0,.07-5.27,9.5,9.5,0,0,0-.39-1.21,6.22,6.22,0,0,0-10.69-1.1c-1.82,2.88-1.16,7.74,1.31,10.1,2.73,2.61,7.54,2,9.19-1.2A7.83,7.83,0,0,0,194.78,23.31Z"/><path class="cls-1" d="M5.26,17.63c0,2.49,0,4.89,0,7.28A1.37,1.37,0,0,0,6.7,26.22a26.59,26.59,0,0,0,3.34,0c1.3-.09,1.8-1,1.93-2.25l.38.13A28.72,28.72,0,0,1,11.79,27c0,.19-.66.32-1,.32-2.06,0-4.12-.1-6.18-.13-1.09,0-2.18,0-3.37-.1,1.93-.26,1.72-1.68,1.7-2.93q-.08-6.28-.22-12.57c0-2.48,0-2.48-2.53-3.35H11.27l-.23,3c-.49-2.2-2.24-1.88-3.76-2-.76,0-1.52,0-2.25,0,0,2.32,0,4.58,0,6.84,0,.19.31.53.47.53,1.82,0,3.69.39,5.53-.54l-.26,3.38-.27.25c0-2.17-1.45-2-2.74-2C6.92,17.61,6.06,17.63,5.26,17.63Z"/><path class="cls-1" d="M82.36,18.2a17.27,17.27,0,0,1,2,1.34,4.12,4.12,0,0,1-.79,6.84,10.82,10.82,0,0,1-2.28.72,2.86,2.86,0,0,1-.83.06c-1.88,0-3.75,0-5.73-.1,1.57-.46,1.33-1.73,1.35-2.8.07-3.48.09-7,.09-10.46,0-1.69-.07-1.73-1.81-2.14a3.75,3.75,0,0,1,.68-.15c1.71,0,3.42,0,5.13.05a5.88,5.88,0,0,1,1.44.2c2.73.71,3.53,3.26,1.69,5.4C83,17.52,82.69,17.86,82.36,18.2Zm-4.19.86c0,2.07,0,4.15,0,6.23a1,1,0,0,0,.33.63c1.46,1.3,4.72.3,5.22-1.6C84.38,21.84,82.83,18.28,78.17,19.06Zm0-.75a12.3,12.3,0,0,0,3.3-.49c1.14-.52,1.4-2.67.72-4a3.08,3.08,0,0,0-3.56-1.52c-.18.07-.44.31-.44.48C78.15,14.53,78.16,16.27,78.16,18.31Z"/><path class="cls-1" d="M44.55,23.66c-.21,1-.38,1.95-.67,2.9a1.16,1.16,0,0,1-.77.6c-3.62.64-7.2.76-10.44-1.36a7.68,7.68,0,0,1-3.44-8.19,7.31,7.31,0,0,1,5.92-6.32c2.94-.71,5.84-.19,8.74.3.15,0,.39.25.39.38,0,1.17,0,2.33,0,3.67-.35-.21-.45-.24-.46-.28-.16-2-1.47-2.86-3.28-3.24a11.05,11.05,0,0,0-5.39.14,5,5,0,0,0-3.36,3.06,8.08,8.08,0,0,0,7,11.13,13.59,13.59,0,0,0,2.3,0A3,3,0,0,0,44,24.1a3.11,3.11,0,0,1,.25-.52Z"/><path class="cls-1" d="M95,11c.37.84.65,1.42.89,2,1.49,3.73,3,7.46,4.46,11.18.51,1.27,1,2.59,2.74,2.78H99.19c-.29-.9-.51-1.7-.8-2.48-1.17-3.12-1.18-3.12-4.49-3.1-1.92,0-1.92,0-2.62,1.8-.24.62-.48,1.24-.7,1.86-.28.81-.54,1.62.73,1.92H86.85a.72.72,0,0,1,0-.17c1.59-.11,2.15-1.25,2.66-2.55,1.56-4,3.18-8,4.79-12C94.46,12,94.67,11.62,95,11Zm-.3,3.73-.28,0-2.09,5.7H96.8Z"/><path class="cls-1" d="M135,27.34h-4.57c.27-.2.36-.32.45-.33A2.26,2.26,0,0,0,133,25.27c1.63-4.08,3.28-8.16,4.92-12.24.18-.44.39-.87.7-1.57.33.64.58,1,.75,1.46q2.33,5.78,4.64,11.56c.55,1.37,1.09,2.76,2.87,3h-4c-.14-.64-.21-1.16-.37-1.66s-.43-1.1-.65-1.65c-1-2.35-1-2.35-3.54-2.38s-2.56,0-3.48,2.38c-.2.52-.38,1.05-.55,1.58C134,26.49,134,27.09,135,27.34Zm3.39-12.19-.26,0c-.67,1.84-1.35,3.69-2.08,5.68h4.47C139.73,18.88,139,17,138.35,15.15Z"/><path class="cls-1" d="M24.6,13.86c-1.27-1.89-2.66-2.54-4.73-2.09-1.91.42-2.68,2.29-1.38,3.74a26.21,26.21,0,0,0,3.14,2.57,23.33,23.33,0,0,1,2.61,2.24,4,4,0,0,1,.82,4.4,3.85,3.85,0,0,1-3.5,2.6,37.19,37.19,0,0,1-4.47-.17c-.76,0-1.05-.54-1-1.3s0-1.42,0-2.13l.32,0a1.93,1.93,0,0,0,.2.6,5.73,5.73,0,0,0,1.32,1.77,4.32,4.32,0,0,0,4,.25,2.63,2.63,0,0,0,.94-4.27,33.75,33.75,0,0,0-3-2.45,21.36,21.36,0,0,1-2.65-2.36,3.7,3.7,0,0,1,1.85-6.15,9.9,9.9,0,0,1,5.07.1.66.66,0,0,1,.38.5C24.62,12.41,24.6,13.14,24.6,13.86Z"/><path class="cls-1" d="M65.59,11.53h4.79C69.05,11.84,69,12.8,69,13.85c0,3.49,0,7,0,10.47,0,2.05,0,2.05,1.82,2.72H65.6c1.29-.3,1.27-1.36,1.28-2.35.05-3.7.05-7.4.09-11.09C67,12.58,66.79,11.77,65.59,11.53Z"/><path class="cls-1" d="M129.14,27.24h-5c1.28-.24,1.24-1.21,1.25-2.12.06-3.7.09-7.4.14-11.1,0-1-.15-1.76-1.33-2h4.66c-.47.36-1,.57-1.2.95a3.34,3.34,0,0,0-.17,1.43c0,3.32-.06,6.64-.06,10C127.4,25.64,127.18,27.11,129.14,27.24Z"/><path class="cls-1" d="M130.21,8.86l-4.79,1.2-.12-.2,4.06-2.45Z"/><path class="cls-1" d="M193,9.49l-5.1,1.21-.1-.17a41.29,41.29,0,0,1,3.82-2.18C191.86,8.25,192.48,9,193,9.49Z"/></svg>